<svg xmlns="http://www.w3.org/2000/svg" width="176.6" height="302"><path d="M11 302c-10-1-10-1-11-11 0-5 0-6 4-8l2-1-1-2c-2-1-4-5-4-7 0-3 2-5 15-18l14-15c2-5 3-13 1-21 0-5-2-9-6-14l-2-5c-1-1-1-2-5-2l-5-1c-2-1-2-5 2-14 6-14 7-24 8-46 1-29-3-49-13-75l-2-6V46l1-25c1-3 3-6 6-6l7-6c5-7 7-8 16-8l12-1c5 0 5 0 7 2 1 1 2 2 2 5 1 4 3 7 5 9h61l17-1 2 1 6 5 2 4v8l-1 9-4 2c-5 1-6 2-3 5s5 6 5 8l-1 2c-2 2-2 3-2 5l-2 4c-3 1-5 1-11-1-5-1-7-2-11-1-7 0-10 1-16 8-5 4-12 15-12 17 0 3 4 7 10 10a359 359 0 0 1 39 34l7 9c4 4 5 8 5 11v21l-1 19-1 3c1 3 1 4-2 9-4 6-6 9-6 16-1 7 0 13 2 17l15 16 13 14c2 3 1 6-2 9l-2 3 2 2c4 1 4 2 3 9 0 5-1 7-2 8l-1 1H11z"/></svg>